# xmcd CD database file
#
# Track frame offsets:
#	150
#	12851
#	25568
#	40056
#	56815
#	67918
#	87575
#	104947
#	120278
#	135534
#
# Disc length: 1951 seconds
#
# Revision: 0
# Processed by: cddbd v1.5.1PL2 Copyright (c) Steve Scherf et al.
# Submitted via: CDex 1.51
#
DISCID=7e079d0a
DTITLE=Darryl Lee Odonnell - I Got A Feelin
DYEAR=2006
DGENRE=Country
TTITLE0=I Got a Feelin
TTITLE1=Pictures In My Mind
TTITLE2=You're Not Lonely Anymore
TTITLE3=Leave A Mark
TTITLE4=Friday Night and I Can't Stay Home
TTITLE5=Forever Didn't Last
TTITLE6=What Can I Do
TTITLE7=Let There Be Light
TTITLE8=Love Of a Lifetime
TTITLE9=Everybody Needs A Hero
EXTD=YEAR: 2006
EXTT0=
EXTT1=
EXTT2=
EXTT3=
EXTT4=
EXTT5=
EXTT6=
EXTT7=
EXTT8=
EXTT9=
PLAYORDER=
